<mxfile host="app.diagrams.net" modified="2021-09-13T04:34:42.362Z" agent="5.0 (Windows NT 10.0; Win64; x64) AppleWebKit/537.36 (KHTML, like Gecko) Chrome/93.0.4577.63 Safari/537.36" etag="4waoPgwv9Bp9N8Hbik79" version="15.1.4" type="github">
  <diagram id="Ky8IyMACUHGpmwX0dS3J" name="Page-1">
    <mxGraphModel dx="-418" dy="468" grid="0" gridSize="10" guides="1" tooltips="1" connect="1" arrows="1" fold="1" page="0" pageScale="1" pageWidth="827" pageHeight="1169" math="0" shadow="0">
      <root>
        <mxCell id="0" />
        <mxCell id="1" parent="0" />
        <mxCell id="igd0yso8PZgpIgcPEhIs-1" value="&lt;b&gt;&lt;font color=&quot;#660000&quot;&gt;Citrix ESXi&lt;/font&gt;&lt;/b&gt;" style="text;html=1;strokeColor=none;fillColor=none;align=center;verticalAlign=middle;whiteSpace=wrap;rounded=0;" vertex="1" parent="1">
          <mxGeometry x="2161" y="350" width="125" height="12" as="geometry" />
        </mxCell>
        <mxCell id="igd0yso8PZgpIgcPEhIs-2" value="&lt;b&gt;&lt;font color=&quot;#660000&quot;&gt;Production ESXi&lt;/font&gt;&lt;/b&gt;" style="text;html=1;strokeColor=none;fillColor=none;align=center;verticalAlign=middle;whiteSpace=wrap;rounded=0;" vertex="1" parent="1">
          <mxGeometry x="1952" y="350" width="125" height="12" as="geometry" />
        </mxCell>
        <mxCell id="igd0yso8PZgpIgcPEhIs-3" value="" style="aspect=fixed;pointerEvents=1;shadow=0;dashed=0;html=1;strokeColor=none;labelPosition=center;verticalLabelPosition=bottom;verticalAlign=top;align=center;fillColor=#00188D;shape=mxgraph.azure.virtual_machine_feature" vertex="1" parent="1">
          <mxGeometry x="2275.11" y="290" width="28.89" height="26" as="geometry" />
        </mxCell>
        <mxCell id="igd0yso8PZgpIgcPEhIs-4" value="" style="aspect=fixed;pointerEvents=1;shadow=0;dashed=0;html=1;strokeColor=none;labelPosition=center;verticalLabelPosition=bottom;verticalAlign=top;align=center;fillColor=#00188D;shape=mxgraph.azure.virtual_machine_feature" vertex="1" parent="1">
          <mxGeometry x="2183" y="290" width="28.89" height="26" as="geometry" />
        </mxCell>
        <mxCell id="igd0yso8PZgpIgcPEhIs-5" value="" style="aspect=fixed;pointerEvents=1;shadow=0;dashed=0;html=1;strokeColor=none;labelPosition=center;verticalLabelPosition=bottom;verticalAlign=top;align=center;fillColor=#00188D;shape=mxgraph.azure.virtual_machine_feature" vertex="1" parent="1">
          <mxGeometry x="2146" y="290" width="28.89" height="26" as="geometry" />
        </mxCell>
        <mxCell id="igd0yso8PZgpIgcPEhIs-6" value="" style="aspect=fixed;pointerEvents=1;shadow=0;dashed=0;html=1;strokeColor=none;labelPosition=center;verticalLabelPosition=bottom;verticalAlign=top;align=center;fillColor=#00188D;shape=mxgraph.azure.virtual_machine_feature" vertex="1" parent="1">
          <mxGeometry x="2066" y="290" width="28.89" height="26" as="geometry" />
        </mxCell>
        <mxCell id="igd0yso8PZgpIgcPEhIs-7" value="" style="aspect=fixed;pointerEvents=1;shadow=0;dashed=0;html=1;strokeColor=none;labelPosition=center;verticalLabelPosition=bottom;verticalAlign=top;align=center;fillColor=#00188D;shape=mxgraph.azure.virtual_machine_feature" vertex="1" parent="1">
          <mxGeometry x="1970" y="292" width="28.89" height="26" as="geometry" />
        </mxCell>
        <mxCell id="igd0yso8PZgpIgcPEhIs-8" value="" style="aspect=fixed;pointerEvents=1;shadow=0;dashed=0;html=1;strokeColor=none;labelPosition=center;verticalLabelPosition=bottom;verticalAlign=top;align=center;fillColor=#00188D;shape=mxgraph.azure.virtual_machine_feature" vertex="1" parent="1">
          <mxGeometry x="1932.11" y="292" width="28.89" height="26" as="geometry" />
        </mxCell>
        <mxCell id="igd0yso8PZgpIgcPEhIs-9" value="158 Virtual Servers" style="text;html=1;strokeColor=none;fillColor=none;align=center;verticalAlign=middle;whiteSpace=wrap;rounded=0;" vertex="1" parent="1">
          <mxGeometry x="1942" y="325" width="139" height="12" as="geometry" />
        </mxCell>
        <mxCell id="igd0yso8PZgpIgcPEhIs-10" value="38 Virtual Servers" style="text;html=1;strokeColor=none;fillColor=none;align=center;verticalAlign=middle;whiteSpace=wrap;rounded=0;" vertex="1" parent="1">
          <mxGeometry x="2154" y="325" width="139" height="12" as="geometry" />
        </mxCell>
        <mxCell id="igd0yso8PZgpIgcPEhIs-11" style="edgeStyle=orthogonalEdgeStyle;rounded=0;orthogonalLoop=1;jettySize=auto;html=1;entryX=0.5;entryY=1;entryDx=0;entryDy=0;startArrow=classic;startFill=1;endArrow=classic;endFill=1;" edge="1" parent="1" source="igd0yso8PZgpIgcPEhIs-12" target="igd0yso8PZgpIgcPEhIs-27">
          <mxGeometry relative="1" as="geometry" />
        </mxCell>
        <mxCell id="igd0yso8PZgpIgcPEhIs-12" value="" style="rounded=0;whiteSpace=wrap;html=1;strokeColor=#663300;fillColor=none;" vertex="1" parent="1">
          <mxGeometry x="1924" y="274" width="175" height="92" as="geometry" />
        </mxCell>
        <mxCell id="igd0yso8PZgpIgcPEhIs-13" style="edgeStyle=orthogonalEdgeStyle;rounded=0;orthogonalLoop=1;jettySize=auto;html=1;entryX=0.852;entryY=0.952;entryDx=0;entryDy=0;entryPerimeter=0;startArrow=classic;startFill=1;endArrow=classic;endFill=1;" edge="1" parent="1" source="igd0yso8PZgpIgcPEhIs-14" target="igd0yso8PZgpIgcPEhIs-27">
          <mxGeometry relative="1" as="geometry" />
        </mxCell>
        <mxCell id="igd0yso8PZgpIgcPEhIs-14" value="" style="rounded=0;whiteSpace=wrap;html=1;strokeColor=#663300;fillColor=none;" vertex="1" parent="1">
          <mxGeometry x="2138" y="274" width="175" height="92" as="geometry" />
        </mxCell>
        <mxCell id="igd0yso8PZgpIgcPEhIs-15" style="edgeStyle=orthogonalEdgeStyle;rounded=0;orthogonalLoop=1;jettySize=auto;html=1;entryX=0.5;entryY=1;entryDx=0;entryDy=0;startArrow=classic;startFill=1;endArrow=classic;endFill=1;" edge="1" parent="1" source="igd0yso8PZgpIgcPEhIs-16" target="igd0yso8PZgpIgcPEhIs-12">
          <mxGeometry relative="1" as="geometry" />
        </mxCell>
        <mxCell id="igd0yso8PZgpIgcPEhIs-16" value="" style="rounded=1;whiteSpace=wrap;html=1;strokeColor=#663300;fillColor=none;" vertex="1" parent="1">
          <mxGeometry x="1924.5" y="397" width="174" height="28" as="geometry" />
        </mxCell>
        <mxCell id="igd0yso8PZgpIgcPEhIs-17" style="edgeStyle=orthogonalEdgeStyle;rounded=0;orthogonalLoop=1;jettySize=auto;html=1;entryX=0.5;entryY=1;entryDx=0;entryDy=0;startArrow=classic;startFill=1;endArrow=classic;endFill=1;" edge="1" parent="1" source="igd0yso8PZgpIgcPEhIs-18" target="igd0yso8PZgpIgcPEhIs-14">
          <mxGeometry relative="1" as="geometry" />
        </mxCell>
        <mxCell id="igd0yso8PZgpIgcPEhIs-18" value="" style="rounded=1;whiteSpace=wrap;html=1;strokeColor=#663300;fillColor=none;" vertex="1" parent="1">
          <mxGeometry x="2139" y="397" width="174" height="28" as="geometry" />
        </mxCell>
        <mxCell id="igd0yso8PZgpIgcPEhIs-19" style="edgeStyle=orthogonalEdgeStyle;rounded=0;orthogonalLoop=1;jettySize=auto;html=1;entryX=0.5;entryY=1;entryDx=0;entryDy=0;startArrow=classic;startFill=1;endArrow=classic;endFill=1;" edge="1" parent="1" source="igd0yso8PZgpIgcPEhIs-20" target="igd0yso8PZgpIgcPEhIs-16">
          <mxGeometry relative="1" as="geometry" />
        </mxCell>
        <mxCell id="igd0yso8PZgpIgcPEhIs-20" value="" style="shape=cylinder3;whiteSpace=wrap;html=1;boundedLbl=1;backgroundOutline=1;size=15;strokeColor=#663300;fillColor=none;" vertex="1" parent="1">
          <mxGeometry x="1906.89" y="475" width="74.11" height="58" as="geometry" />
        </mxCell>
        <mxCell id="igd0yso8PZgpIgcPEhIs-21" style="edgeStyle=orthogonalEdgeStyle;rounded=0;orthogonalLoop=1;jettySize=auto;html=1;entryX=0.554;entryY=1.107;entryDx=0;entryDy=0;entryPerimeter=0;startArrow=classic;startFill=1;endArrow=classic;endFill=1;" edge="1" parent="1" source="igd0yso8PZgpIgcPEhIs-22" target="igd0yso8PZgpIgcPEhIs-18">
          <mxGeometry relative="1" as="geometry" />
        </mxCell>
        <mxCell id="igd0yso8PZgpIgcPEhIs-22" value="" style="shape=cylinder3;whiteSpace=wrap;html=1;boundedLbl=1;backgroundOutline=1;size=15;strokeColor=#663300;fillColor=none;" vertex="1" parent="1">
          <mxGeometry x="2189" y="466" width="92" height="58" as="geometry" />
        </mxCell>
        <mxCell id="igd0yso8PZgpIgcPEhIs-23" value="Production SAN Switch" style="text;html=1;strokeColor=none;fillColor=none;align=center;verticalAlign=middle;whiteSpace=wrap;rounded=0;" vertex="1" parent="1">
          <mxGeometry x="1920.5" y="405" width="178" height="12" as="geometry" />
        </mxCell>
        <mxCell id="igd0yso8PZgpIgcPEhIs-24" value="Citrix SAN Switch" style="text;html=1;strokeColor=none;fillColor=none;align=center;verticalAlign=middle;whiteSpace=wrap;rounded=0;" vertex="1" parent="1">
          <mxGeometry x="2139" y="405" width="178" height="12" as="geometry" />
        </mxCell>
        <mxCell id="igd0yso8PZgpIgcPEhIs-25" value="SAN" style="text;html=1;strokeColor=none;fillColor=none;align=center;verticalAlign=middle;whiteSpace=wrap;rounded=0;fontStyle=0" vertex="1" parent="1">
          <mxGeometry x="2223" y="497" width="40" height="20" as="geometry" />
        </mxCell>
        <mxCell id="igd0yso8PZgpIgcPEhIs-26" value="SAN" style="text;html=1;strokeColor=none;fillColor=none;align=center;verticalAlign=middle;whiteSpace=wrap;rounded=0;fontStyle=0" vertex="1" parent="1">
          <mxGeometry x="1921" y="507" width="40" height="20" as="geometry" />
        </mxCell>
        <mxCell id="igd0yso8PZgpIgcPEhIs-27" value="" style="rounded=1;whiteSpace=wrap;html=1;strokeColor=#663300;fillColor=none;" vertex="1" parent="1">
          <mxGeometry x="1708.5" y="212" width="606" height="21" as="geometry" />
        </mxCell>
        <mxCell id="igd0yso8PZgpIgcPEhIs-28" value="CORE SWITCHES" style="text;html=1;strokeColor=none;fillColor=none;align=center;verticalAlign=middle;whiteSpace=wrap;rounded=0;" vertex="1" parent="1">
          <mxGeometry x="1896" y="221.5" width="181" height="5" as="geometry" />
        </mxCell>
        <mxCell id="igd0yso8PZgpIgcPEhIs-29" style="edgeStyle=orthogonalEdgeStyle;rounded=0;orthogonalLoop=1;jettySize=auto;html=1;startArrow=classic;startFill=1;endArrow=classic;endFill=1;" edge="1" parent="1" source="igd0yso8PZgpIgcPEhIs-30">
          <mxGeometry relative="1" as="geometry">
            <mxPoint x="2010.6666259765625" y="427.3333740234375" as="targetPoint" />
          </mxGeometry>
        </mxCell>
        <mxCell id="igd0yso8PZgpIgcPEhIs-30" value="" style="shape=cylinder3;whiteSpace=wrap;html=1;boundedLbl=1;backgroundOutline=1;size=15;strokeColor=#663300;fillColor=none;" vertex="1" parent="1">
          <mxGeometry x="1988" y="475" width="74.11" height="58" as="geometry" />
        </mxCell>
        <mxCell id="igd0yso8PZgpIgcPEhIs-31" style="edgeStyle=orthogonalEdgeStyle;rounded=0;orthogonalLoop=1;jettySize=auto;html=1;startArrow=classic;startFill=1;endArrow=classic;endFill=1;" edge="1" parent="1" source="igd0yso8PZgpIgcPEhIs-32">
          <mxGeometry relative="1" as="geometry">
            <mxPoint x="2011.9999389648438" y="427.3333740234375" as="targetPoint" />
            <Array as="points">
              <mxPoint x="2103" y="452" />
              <mxPoint x="2012" y="452" />
            </Array>
          </mxGeometry>
        </mxCell>
        <mxCell id="igd0yso8PZgpIgcPEhIs-32" value="" style="shape=cylinder3;whiteSpace=wrap;html=1;boundedLbl=1;backgroundOutline=1;size=15;strokeColor=#663300;fillColor=none;" vertex="1" parent="1">
          <mxGeometry x="2066" y="475" width="74.11" height="58" as="geometry" />
        </mxCell>
        <mxCell id="igd0yso8PZgpIgcPEhIs-33" value="Tape Lib." style="text;html=1;strokeColor=none;fillColor=none;align=center;verticalAlign=middle;whiteSpace=wrap;rounded=0;" vertex="1" parent="1">
          <mxGeometry x="1998.89" y="507" width="51.11" height="21" as="geometry" />
        </mxCell>
        <mxCell id="igd0yso8PZgpIgcPEhIs-34" value="CommVault" style="text;html=1;strokeColor=none;fillColor=none;align=center;verticalAlign=middle;whiteSpace=wrap;rounded=0;" vertex="1" parent="1">
          <mxGeometry x="2077" y="507" width="51.11" height="21" as="geometry" />
        </mxCell>
        <mxCell id="igd0yso8PZgpIgcPEhIs-35" style="edgeStyle=orthogonalEdgeStyle;rounded=0;orthogonalLoop=1;jettySize=auto;html=1;startArrow=classic;startFill=1;endArrow=classic;endFill=1;" edge="1" parent="1" source="igd0yso8PZgpIgcPEhIs-36">
          <mxGeometry relative="1" as="geometry">
            <mxPoint x="1820.6666259765625" y="144.5" as="targetPoint" />
          </mxGeometry>
        </mxCell>
        <mxCell id="igd0yso8PZgpIgcPEhIs-36" value="" style="aspect=fixed;pointerEvents=1;shadow=0;dashed=0;html=1;strokeColor=none;labelPosition=center;verticalLabelPosition=bottom;verticalAlign=top;align=center;fillColor=#00188D;shape=mxgraph.mscae.enterprise.router" vertex="1" parent="1">
          <mxGeometry x="1729" y="125" width="50" height="39" as="geometry" />
        </mxCell>
        <mxCell id="igd0yso8PZgpIgcPEhIs-37" value="" style="aspect=fixed;perimeter=ellipsePerimeter;html=1;align=center;shadow=0;dashed=0;spacingTop=3;image;image=img/lib/active_directory/firewall.svg;strokeColor=#663300;fillColor=none;" vertex="1" parent="1">
          <mxGeometry x="1966" y="111" width="30.5" height="50" as="geometry" />
        </mxCell>
        <mxCell id="igd0yso8PZgpIgcPEhIs-38" style="edgeStyle=orthogonalEdgeStyle;rounded=0;orthogonalLoop=1;jettySize=auto;html=1;startArrow=classic;startFill=1;endArrow=classic;endFill=1;" edge="1" parent="1" source="igd0yso8PZgpIgcPEhIs-39">
          <mxGeometry relative="1" as="geometry">
            <mxPoint x="2233" y="211" as="targetPoint" />
          </mxGeometry>
        </mxCell>
        <mxCell id="igd0yso8PZgpIgcPEhIs-39" value="" style="aspect=fixed;pointerEvents=1;shadow=0;dashed=0;html=1;strokeColor=none;labelPosition=center;verticalLabelPosition=bottom;verticalAlign=top;align=center;fillColor=#00188D;shape=mxgraph.mscae.enterprise.router" vertex="1" parent="1">
          <mxGeometry x="2208" y="128" width="50" height="39" as="geometry" />
        </mxCell>
        <mxCell id="igd0yso8PZgpIgcPEhIs-40" value="" style="aspect=fixed;perimeter=ellipsePerimeter;html=1;align=center;shadow=0;dashed=0;spacingTop=3;image;image=img/lib/active_directory/firewall.svg;strokeColor=#663300;fillColor=none;" vertex="1" parent="1">
          <mxGeometry x="1996.5" y="110" width="30.5" height="50" as="geometry" />
        </mxCell>
        <mxCell id="igd0yso8PZgpIgcPEhIs-41" value="Gamma SIP Router" style="text;html=1;strokeColor=none;fillColor=none;align=center;verticalAlign=middle;whiteSpace=wrap;rounded=0;" vertex="1" parent="1">
          <mxGeometry x="1697.5" y="167" width="113" height="20" as="geometry" />
        </mxCell>
        <mxCell id="igd0yso8PZgpIgcPEhIs-42" value="Firewalls (Fortigate, Meraki)" style="text;html=1;strokeColor=none;fillColor=none;align=center;verticalAlign=middle;whiteSpace=wrap;rounded=0;" vertex="1" parent="1">
          <mxGeometry x="1918" y="184" width="153.45" height="20" as="geometry" />
        </mxCell>
        <mxCell id="igd0yso8PZgpIgcPEhIs-43" value="Pulsant MPLS Router" style="text;html=1;strokeColor=none;fillColor=none;align=center;verticalAlign=middle;whiteSpace=wrap;rounded=0;" vertex="1" parent="1">
          <mxGeometry x="2150" y="184" width="120.89" height="20" as="geometry" />
        </mxCell>
        <mxCell id="igd0yso8PZgpIgcPEhIs-44" style="edgeStyle=orthogonalEdgeStyle;rounded=0;orthogonalLoop=1;jettySize=auto;html=1;startArrow=classic;startFill=1;endArrow=classic;endFill=1;" edge="1" parent="1" source="igd0yso8PZgpIgcPEhIs-45">
          <mxGeometry relative="1" as="geometry">
            <mxPoint x="1759" y="133" as="targetPoint" />
          </mxGeometry>
        </mxCell>
        <mxCell id="igd0yso8PZgpIgcPEhIs-45" value="" style="ellipse;shape=cloud;whiteSpace=wrap;html=1;strokeColor=#663300;fillColor=none;" vertex="1" parent="1">
          <mxGeometry x="1699" y="45" width="120" height="49" as="geometry" />
        </mxCell>
        <mxCell id="igd0yso8PZgpIgcPEhIs-46" style="edgeStyle=orthogonalEdgeStyle;rounded=0;orthogonalLoop=1;jettySize=auto;html=1;entryX=0.368;entryY=0.107;entryDx=0;entryDy=0;entryPerimeter=0;startArrow=classic;startFill=1;endArrow=classic;endFill=1;" edge="1" parent="1" source="igd0yso8PZgpIgcPEhIs-47" target="igd0yso8PZgpIgcPEhIs-57">
          <mxGeometry relative="1" as="geometry" />
        </mxCell>
        <mxCell id="igd0yso8PZgpIgcPEhIs-47" value="" style="ellipse;shape=cloud;whiteSpace=wrap;html=1;strokeColor=#663300;fillColor=none;" vertex="1" parent="1">
          <mxGeometry x="1926.5" y="37" width="120" height="39" as="geometry" />
        </mxCell>
        <mxCell id="igd0yso8PZgpIgcPEhIs-48" style="edgeStyle=orthogonalEdgeStyle;rounded=0;orthogonalLoop=1;jettySize=auto;html=1;startArrow=classic;startFill=1;endArrow=classic;endFill=1;entryX=0.5;entryY=0.22;entryDx=0;entryDy=0;entryPerimeter=0;" edge="1" parent="1" source="igd0yso8PZgpIgcPEhIs-49" target="igd0yso8PZgpIgcPEhIs-39">
          <mxGeometry relative="1" as="geometry">
            <mxPoint x="2231" y="137" as="targetPoint" />
          </mxGeometry>
        </mxCell>
        <mxCell id="igd0yso8PZgpIgcPEhIs-49" value="" style="ellipse;shape=cloud;whiteSpace=wrap;html=1;strokeColor=#663300;fillColor=none;" vertex="1" parent="1">
          <mxGeometry x="2173" y="48" width="120" height="49" as="geometry" />
        </mxCell>
        <mxCell id="igd0yso8PZgpIgcPEhIs-50" value="Internet" style="text;html=1;strokeColor=none;fillColor=none;align=center;verticalAlign=middle;whiteSpace=wrap;rounded=0;" vertex="1" parent="1">
          <mxGeometry x="1970" y="54.5" width="40" height="20" as="geometry" />
        </mxCell>
        <mxCell id="igd0yso8PZgpIgcPEhIs-51" value="Gamma n/w&amp;nbsp;" style="text;html=1;strokeColor=none;fillColor=none;align=center;verticalAlign=middle;whiteSpace=wrap;rounded=0;" vertex="1" parent="1">
          <mxGeometry x="1729" y="62.5" width="76" height="20" as="geometry" />
        </mxCell>
        <mxCell id="igd0yso8PZgpIgcPEhIs-52" value="MPLS Cloud" style="text;html=1;strokeColor=none;fillColor=none;align=center;verticalAlign=middle;whiteSpace=wrap;rounded=0;" vertex="1" parent="1">
          <mxGeometry x="2187" y="62.5" width="76" height="20" as="geometry" />
        </mxCell>
        <mxCell id="igd0yso8PZgpIgcPEhIs-53" style="edgeStyle=orthogonalEdgeStyle;rounded=0;orthogonalLoop=1;jettySize=auto;html=1;entryX=0.233;entryY=-0.032;entryDx=0;entryDy=0;entryPerimeter=0;startArrow=classic;startFill=1;endArrow=classic;endFill=1;" edge="1" parent="1" source="igd0yso8PZgpIgcPEhIs-54" target="igd0yso8PZgpIgcPEhIs-27">
          <mxGeometry relative="1" as="geometry" />
        </mxCell>
        <mxCell id="igd0yso8PZgpIgcPEhIs-54" value="" style="rounded=1;whiteSpace=wrap;html=1;strokeColor=#663300;fillColor=#A9C4EB;" vertex="1" parent="1">
          <mxGeometry x="1820.89" y="117" width="58" height="49" as="geometry" />
        </mxCell>
        <mxCell id="igd0yso8PZgpIgcPEhIs-55" value="Sonus SBC" style="text;html=1;strokeColor=none;fillColor=none;align=center;verticalAlign=middle;whiteSpace=wrap;rounded=0;" vertex="1" parent="1">
          <mxGeometry x="1852.4999999999998" y="164" width="68" height="20" as="geometry" />
        </mxCell>
        <mxCell id="igd0yso8PZgpIgcPEhIs-56" style="edgeStyle=orthogonalEdgeStyle;rounded=0;orthogonalLoop=1;jettySize=auto;html=1;entryX=0.552;entryY=-0.833;entryDx=0;entryDy=0;entryPerimeter=0;startArrow=classic;startFill=1;endArrow=classic;endFill=1;" edge="1" parent="1" source="igd0yso8PZgpIgcPEhIs-57" target="igd0yso8PZgpIgcPEhIs-28">
          <mxGeometry relative="1" as="geometry" />
        </mxCell>
        <mxCell id="igd0yso8PZgpIgcPEhIs-57" value="" style="rounded=0;whiteSpace=wrap;html=1;strokeColor=#663300;fillColor=none;" vertex="1" parent="1">
          <mxGeometry x="1960" y="107" width="72" height="53" as="geometry" />
        </mxCell>
        <mxCell id="igd0yso8PZgpIgcPEhIs-58" value="" style="rounded=0;whiteSpace=wrap;html=1;fillColor=none;strokeColor=#009900;" vertex="1" parent="1">
          <mxGeometry x="1400" y="207.5" width="150" height="30" as="geometry" />
        </mxCell>
        <mxCell id="igd0yso8PZgpIgcPEhIs-59" value="" style="aspect=fixed;html=1;points=[];align=center;image;fontSize=12;image=img/lib/azure2/compute/Virtual_Machine.svg;fillColor=none;" vertex="1" parent="1">
          <mxGeometry x="1440" y="294" width="31.27" height="29" as="geometry" />
        </mxCell>
        <mxCell id="igd0yso8PZgpIgcPEhIs-60" value="" style="aspect=fixed;html=1;points=[];align=center;image;fontSize=12;image=img/lib/azure2/compute/Virtual_Machine.svg;fillColor=none;" vertex="1" parent="1">
          <mxGeometry x="1513.73" y="296" width="31.27" height="29" as="geometry" />
        </mxCell>
        <mxCell id="igd0yso8PZgpIgcPEhIs-61" value="" style="aspect=fixed;html=1;points=[];align=center;image;fontSize=12;image=img/lib/azure2/compute/Virtual_Machine.svg;fillColor=none;" vertex="1" parent="1">
          <mxGeometry x="1405" y="294" width="31.27" height="29" as="geometry" />
        </mxCell>
        <mxCell id="igd0yso8PZgpIgcPEhIs-62" value="33 virtual Machines" style="text;html=1;strokeColor=none;fillColor=none;align=center;verticalAlign=middle;whiteSpace=wrap;rounded=0;" vertex="1" parent="1">
          <mxGeometry x="1405" y="325" width="120" height="20" as="geometry" />
        </mxCell>
        <mxCell id="igd0yso8PZgpIgcPEhIs-63" value="&lt;b&gt;&lt;font style=&quot;font-size: 14px&quot;&gt;Test &amp;amp; Dev&lt;/font&gt;&lt;/b&gt;" style="text;html=1;strokeColor=none;fillColor=none;align=center;verticalAlign=middle;whiteSpace=wrap;rounded=0;" vertex="1" parent="1">
          <mxGeometry x="1435.64" y="362" width="100" height="20" as="geometry" />
        </mxCell>
        <mxCell id="igd0yso8PZgpIgcPEhIs-64" value="" style="rounded=0;whiteSpace=wrap;html=1;fillColor=none;strokeColor=#009900;" vertex="1" parent="1">
          <mxGeometry x="1395" y="280" width="160" height="110" as="geometry" />
        </mxCell>
        <mxCell id="igd0yso8PZgpIgcPEhIs-65" style="edgeStyle=orthogonalEdgeStyle;rounded=0;orthogonalLoop=1;jettySize=auto;html=1;entryX=0.5;entryY=0;entryDx=0;entryDy=0;startArrow=classic;startFill=1;" edge="1" parent="1" source="igd0yso8PZgpIgcPEhIs-66" target="igd0yso8PZgpIgcPEhIs-64">
          <mxGeometry relative="1" as="geometry" />
        </mxCell>
        <mxCell id="igd0yso8PZgpIgcPEhIs-66" value="PULSANT Cisco ACI N/w" style="text;html=1;strokeColor=none;fillColor=none;align=center;verticalAlign=middle;whiteSpace=wrap;rounded=0;dashed=1;" vertex="1" parent="1">
          <mxGeometry x="1405" y="214" width="140" height="20" as="geometry" />
        </mxCell>
        <mxCell id="igd0yso8PZgpIgcPEhIs-67" value="" style="rounded=0;whiteSpace=wrap;html=1;gradientColor=#ffffff;fillColor=none;" vertex="1" parent="1">
          <mxGeometry x="1550" y="218.25" width="158.5" height="8.5" as="geometry" />
        </mxCell>
        <mxCell id="igd0yso8PZgpIgcPEhIs-68" style="edgeStyle=orthogonalEdgeStyle;rounded=0;orthogonalLoop=1;jettySize=auto;html=1;dashed=1;startArrow=classic;startFill=1;strokeColor=#3333FF;" edge="1" parent="1">
          <mxGeometry relative="1" as="geometry">
            <mxPoint x="1551" y="320" as="sourcePoint" />
            <mxPoint x="1696" y="320" as="targetPoint" />
          </mxGeometry>
        </mxCell>
        <mxCell id="igd0yso8PZgpIgcPEhIs-69" value="" style="rounded=1;whiteSpace=wrap;html=1;dashed=1;fillColor=none;strokeColor=#009900;" vertex="1" parent="1">
          <mxGeometry x="1376" y="190" width="189" height="250" as="geometry" />
        </mxCell>
        <mxCell id="igd0yso8PZgpIgcPEhIs-70" value="&lt;b&gt;&lt;font style=&quot;font-size: 14px&quot; color=&quot;#009900&quot;&gt;New PEC Environment&lt;/font&gt;&lt;/b&gt;" style="text;html=1;strokeColor=none;fillColor=none;align=center;verticalAlign=middle;whiteSpace=wrap;rounded=0;" vertex="1" parent="1">
          <mxGeometry x="1375" y="417" width="195" height="20" as="geometry" />
        </mxCell>
        <mxCell id="igd0yso8PZgpIgcPEhIs-71" value="" style="rounded=0;whiteSpace=wrap;html=1;dashed=1;strokeWidth=1;fillColor=none;gradientColor=#ffffff;dashPattern=1 2;" vertex="1" parent="1">
          <mxGeometry x="1697.5" y="37" width="677" height="522" as="geometry" />
        </mxCell>
        <mxCell id="igd0yso8PZgpIgcPEhIs-72" value="&lt;b&gt;&lt;font style=&quot;font-size: 18px&quot;&gt;PULSANT&lt;/font&gt;&lt;/b&gt;" style="text;html=1;strokeColor=none;fillColor=none;align=center;verticalAlign=middle;whiteSpace=wrap;rounded=0;dashed=1;dashPattern=1 2;" vertex="1" parent="1">
          <mxGeometry x="1395" y="462.5" width="148" height="35" as="geometry" />
        </mxCell>
        <mxCell id="igd0yso8PZgpIgcPEhIs-73" value="&lt;span style=&quot;font-size: 18px&quot;&gt;&lt;b&gt;One Housing Group&lt;/b&gt;&lt;/span&gt;" style="text;html=1;strokeColor=none;fillColor=none;align=center;verticalAlign=middle;whiteSpace=wrap;rounded=0;dashed=1;dashPattern=1 2;" vertex="1" parent="1">
          <mxGeometry x="1704.5" y="485" width="188.5" height="35" as="geometry" />
        </mxCell>
        <mxCell id="igd0yso8PZgpIgcPEhIs-74" value="&lt;span lang=&quot;EN-GB&quot; style=&quot;font-size: 11.0pt ; font-family: &amp;#34;arial&amp;#34; , sans-serif&quot;&gt;5.172.154.30&amp;nbsp;&lt;/span&gt;" style="text;html=1;strokeColor=none;fillColor=none;align=center;verticalAlign=middle;whiteSpace=wrap;rounded=0;" vertex="1" parent="1">
          <mxGeometry x="1584" y="323" width="76" height="20" as="geometry" />
        </mxCell>
        <mxCell id="igd0yso8PZgpIgcPEhIs-75" value="&lt;span lang=&quot;EN-GB&quot; style=&quot;font-size: 11.0pt ; font-family: &amp;#34;arial&amp;#34; , sans-serif&quot;&gt;OHG Internet&lt;br&gt;breakout address&lt;/span&gt;" style="text;html=1;strokeColor=none;fillColor=none;align=center;verticalAlign=middle;whiteSpace=wrap;rounded=0;" vertex="1" parent="1">
          <mxGeometry x="1560" y="346" width="130" height="20" as="geometry" />
        </mxCell>
        <mxCell id="igd0yso8PZgpIgcPEhIs-76" value="" style="shape=cylinder3;whiteSpace=wrap;html=1;boundedLbl=1;backgroundOutline=1;size=7.999969482421875;fillColor=#CCE5FF;" vertex="1" parent="1">
          <mxGeometry x="2071.45" y="50" width="32.55" height="35" as="geometry" />
        </mxCell>
        <mxCell id="igd0yso8PZgpIgcPEhIs-77" value="" style="rounded=0;whiteSpace=wrap;html=1;fillColor=#CCE5FF;" vertex="1" parent="1">
          <mxGeometry x="2107.11" y="85" width="33" height="19" as="geometry" />
        </mxCell>
        <mxCell id="igd0yso8PZgpIgcPEhIs-78" value="" style="rounded=0;whiteSpace=wrap;html=1;fillColor=#CCE5FF;" vertex="1" parent="1">
          <mxGeometry x="2110" y="55" width="33" height="19" as="geometry" />
        </mxCell>
        <mxCell id="igd0yso8PZgpIgcPEhIs-79" value="&lt;font style=&quot;font-size: 10px&quot;&gt;DMP&lt;/font&gt;" style="text;html=1;strokeColor=none;fillColor=none;align=center;verticalAlign=middle;whiteSpace=wrap;rounded=0;" vertex="1" parent="1">
          <mxGeometry x="2067.7200000000003" y="62.5" width="40" height="20" as="geometry" />
        </mxCell>
        <mxCell id="igd0yso8PZgpIgcPEhIs-80" value="&lt;font style=&quot;font-size: 10px&quot;&gt;CRM&lt;/font&gt;" style="text;html=1;strokeColor=none;fillColor=none;align=center;verticalAlign=middle;whiteSpace=wrap;rounded=0;" vertex="1" parent="1">
          <mxGeometry x="2106.0000000000005" y="57.5" width="40" height="20" as="geometry" />
        </mxCell>
        <mxCell id="igd0yso8PZgpIgcPEhIs-81" value="&lt;font style=&quot;font-size: 10px&quot;&gt;Others&lt;/font&gt;" style="text;html=1;strokeColor=none;fillColor=none;align=center;verticalAlign=middle;whiteSpace=wrap;rounded=0;" vertex="1" parent="1">
          <mxGeometry x="2104.0000000000005" y="85" width="40" height="20" as="geometry" />
        </mxCell>
        <mxCell id="igd0yso8PZgpIgcPEhIs-82" value="" style="rounded=0;whiteSpace=wrap;html=1;strokeColor=#000000;fillColor=none;" vertex="1" parent="1">
          <mxGeometry x="2065" y="42.5" width="86" height="71.5" as="geometry" />
        </mxCell>
        <mxCell id="igd0yso8PZgpIgcPEhIs-83" value="" style="html=1;shadow=0;dashed=0;align=center;verticalAlign=middle;shape=mxgraph.arrows2.twoWayArrow;dy=0.65;dx=22;rounded=0;strokeColor=#000000;fillColor=#CCE5FF;" vertex="1" parent="1">
          <mxGeometry x="2008" y="70.5" width="57" height="12" as="geometry" />
        </mxCell>
      </root>
    </mxGraphModel>
  </diagram>
</mxfile>
